# AST/ASF file generated using VICON BodyLanguage
# -----------------------------------------------
:version 1.10
:name VICON
:units
  mass 1.0
  length 0.45
  angle deg
:documentation
   .ast/.asf automatically generated from VICON data using
   VICON BodyBuilder and BodyLanguage model FoxedUp or BRILLIANT.MOD
:root
   order TX TY TZ RX RY RZ
   axis XYZ
   position 0 0 0  
   orientation 0 0 0 
:bonedata
  begin
     id 1 
     name lhipjoint
     direction 0.589753 -0.68606 0.426044 
     length 2.54082 
     axis 0 0 0  XYZ
  end
  begin
     id 2 
     name lfemur
     direction 0.34202 -0.939693 0  
     length 7.04539  
     axis 0 0 20  XYZ
    dof rx ry rz
    limits (-160.0 20.0)
           (-70.0 70.0)
           (-60.0 70.0)
  end
  begin
     id 3 
     name ltibia
     direction 0.34202 -0.939693 0   
     length 7.83772   
     axis 0 0 20   XYZ
    dof rx
    limits (-10.0 170.0)
  end
  begin
     id 4 
     name lfoot
     direction 0.0596604 -0.163915 0.984669   
     length 2.39542   
     axis -90 7.62852e-016 20   XYZ
    dof rx rz
    limits (-45.0 90.0)
           (-70.0 20.0)
  end
  begin
     id 5 
     name ltoes
     direction 1.53514e-011 -4.21954e-011 1   
     length 1.2047   
     axis -90 7.62852e-016 20   XYZ
    dof rx
    limits (-90.0 20.0)
  end
  begin
     id 6 
     name rhipjoint
     direction -0.580585 -0.69168 0.429534   
     length 2.52018  
     axis 0 0 0  XYZ 
  end
  begin
     id 7 
     name rfemur
     direction -0.34202 -0.939693 0   
     length 7.0101   
     axis 0 0 -20   XYZ
    dof rx ry rz
    limits (-160.0 20.0)
           (-70.0 70.0)
           (-70.0 60.0)
  end
  begin
     id 8 
     name rtibia
     direction -0.34202 -0.939693 0   
     length 7.70628   
     axis 0 0 -20   XYZ
    dof rx
    limits (-10.0 170.0)
 end
 begin
     id 9 
     name rfoot
     direction -0.0696237 -0.19129 0.979061   
     length 2.52466  
     axis -90 -7.62852e-016 -20   XYZ
    dof rx rz
    limits (-45.0 90.0)
           (-20.0 70.0)
  end
  begin
     id 10 
     name rtoes
     direction -1.53519e-011 -4.21793e-011 1   
     length 1.266   
     axis -90 -7.62852e-016 -20   XYZ
    dof rx
    limits (-90.0 20.0)
  end
  begin
     id 11 
     name lowerback
     direction 0.00381965 0.995707 -0.0924856   
     length 2.20825   
     axis 0 0 0   XYZ
    dof rx ry rz
    limits (-20.0 45.0)
           (-30.0 30.0)
           (-30.0 30.0)
  end
  begin
     id 12 
     name upperback
     direction -0.0139043 0.999634 -0.0231929   
     length 2.21517   
     axis 0 0 0   XYZ
    dof rx ry rz
    limits (-20.0 45.0)
           (-30.0 30.0)
           (-30.0 30.0)
  end
  begin
     id 13 
     name thorax
     direction -0.0143933 0.999691 0.0202892   
     length 2.22911   
     axis 0 0 0   XYZ
    dof rx ry rz
    limits (-20.0 45.0)
           (-30.0 30.0)
           (-30.0 30.0)
  end
  begin
     id 14 
     name lowerneck
     direction -0.0251153 0.981819 0.188153   
     length 1.61782   
     axis 0 0 0   XYZ
    dof rx ry rz
    limits (-20.0 45.0)
           (-30.0 30.0)
           (-30.0 30.0)
  end
  begin
     id 15 
     name upperneck
     direction 0.0563891 0.969357 -0.239095   
     length 1.64526   
     axis 0 0 0   XYZ
    dof rx ry rz
    limits (-20.0 45.0)
           (-30.0 30.0)
           (-30.0 30.0)
  end
  begin
     id 16
     name head
     direction 0.0208328 0.99459 -0.101773  
     length 1.67436  
     axis 0 0 0   XYZ
    dof rx ry rz
    limits (-20.0 45.0)
           (-30.0 30.0)
           (-30.0 30.0)
  end
  begin
     id 17 
     name lclavicle
     direction 0.917689 0.397224 0.00772059  
     length 3.31102  
     axis 0 0 0   XYZ
    dof ry rz
    limits (-20.0 10.0)
           (0.0 20.0)
  end
  begin
     id 18 
     name lhumerus
     direction 1 -4.4896e-011 2.32308e-027   
     length 5.25537   
     axis 180 -30 -90   XYZ
    dof rx ry rz
    limits (-60.0 90.0)
           (-90.0 90.0)
           (-90.0 90.0)
  end
  begin
     id 19
     name lradius
     direction 1 -4.49005e-011 -2.04271e-027   
     length 3.38855   
     axis 180 -30 -90   XYZ
    dof rx
    limits (-10.0 170.0)
  end
  begin
     id 20
     name lwrist
     direction 1 -4.48892e-011 2.56952e-028   
     length 1.69428   
     axis -5.12785e-016 90 90   XYZ
    dof ry
    limits (-180.0 0.0)
 end
  begin
     id 21 
     name lhand
     direction 1 -4.48966e-011 5.13905e-028   
     length 0.614516   
     axis -3.27915e-016 90 90   XYZ
    dof rx rz
    limits (-90.0 90.0)
           (-45.0 45.0)
  end
  begin
     id 22 
     name lfingers
     direction 1 -4.48979e-011 1.02781e-027   
     length 0.495439   
     axis -6.5583e-016 90 90   XYZ
    dof rx
    limits (0.0 90.0)
  end
  begin
     id 23
     name lthumb
     direction 0.707107 -6.35001e-011 0.707107   
     length 0.711354   
     axis -90 45 2.85299e-015   XYZ
    dof rx rz
    limits (-45.0 45.0)
           (-45.0 45.0)
  end
  begin
     id 24 
     name rclavicle
     direction -0.938556 0.342765 -0.0403177   
     length 3.27019  
     axis 0 0 0   XYZ 
    dof ry rz
    limits (-10.0 20.0)
           (-20.0 0.0)
  end
  begin
     id 25 
     name rhumerus
     direction -1 -4.48966e-011 2.52291e-027  
     length 5.38183   
     axis 180 30 90   XYZ
    dof rx ry rz
    limits (-90.0 60.0)
           (-90.0 90.0)
           (-90.0 90.0)
  end
  begin
     id 26 
     name rradius
     direction -1 -4.4896e-011 1.5797e-027   
     length 3.16988   
     axis 180 30 90   XYZ
    dof rx
    limits (-10.0 170.0)
  end
  begin
     id 27 
     name rwrist
     direction -1 -4.48947e-011 2.56952e-028   
     length 1.58494   
     axis -5.12785e-016 -90 -90   XYZ
    dof ry
    limits (-180.0 0.0)
  end
  begin
     id 28
     name rhand
     direction -1 -4.49098e-011 5.13905e-028   
     length 0.637679   
     axis -3.27915e-016 -90 -90   XYZ
    dof rx rz
    limits (-90.0 90.0)
           (-45.0 45.0)
  end
  begin
     id 29
     name rfingers
     direction -1 -4.49026e-011 1.02781e-027   
     length 0.514113   
     axis -6.5583e-016 -90 -90   XYZ
    dof rx
    limits (0.0 90.0)
  end
  begin
     id 30
     name rthumb
     direction -0.707107 -6.3491e-011 0.707107   
     length 0.738167   
     axis -90 -45 -2.85299e-015   XYZ
    dof rx rz
    limits (-45.0 45.0)
           (-45.0 45.0)
  end
:hierarchy
  begin
    root lhipjoint rhipjoint lowerback
    lhipjoint lfemur
    lfemur ltibia
    ltibia lfoot
    lfoot ltoes
    rhipjoint rfemur
    rfemur rtibia
    rtibia rfoot
    rfoot rtoes
    lowerback upperback
    upperback thorax
    thorax lowerneck lclavicle rclavicle
    lowerneck upperneck
    upperneck head
    lclavicle lhumerus
    lhumerus lradius
    lradius lwrist
    lwrist lhand lthumb
    lhand lfingers
    rclavicle rhumerus
    rhumerus rradius
    rradius rwrist
    rwrist rhand rthumb
    rhand rfingers
  end

#!OML:ASF H:\Swim\Project 1\Capture day 1\Session 1\swimmer.ASF
:FULLY-SPECIFIED
:DEGREES
3511
root 5.77077 11.767 21.1018 86.878 -5.85226 -4.15046
lowerback 2.71712 -2.29948 -12.353
upperback -4.74683 -3.81248 0.797707
thorax -5.75586 -1.31908 8.05248
lowerneck -2.99102 -5.4289 -16.1894
upperneck -3.37834 -6.75027 6.41847
head 0.224042 -3.246 4.39547
rclavicle 2.22639e-014 1.15295e-014
rhumerus 346.105 30.5776 337.678
rradius 110.82
rwrist -23.7113
rhand -9.43261 0.688118
rfingers 7.12502
rthumb 16.53 -388.628
lclavicle 2.22639e-014 1.15295e-014
lhumerus 80.0948 21.3446 23.733
lradius 27.5435
lwrist -7.37413
lhand -10.3615 -698.194
lfingers 7.12502
lthumb 15.6355 51.1944
rfemur -19.6088 10.8199 20.5729
rtibia 38.7807
rfoot 0.0348344 -12.429
rtoes 3.9227
lfemur -14.0302 3.45924 -25.2636
ltibia 36.8631
lfoot 8.2389 3.46312
ltoes 3.21554
3512
root 5.77959 11.7705 21.1269 87.2864 -5.96897 -4.39925
lowerback 2.27767 -2.63466 -12.4668
upperback -4.85134 -4.21086 0.971107
thorax -5.50758 -1.52422 8.29579
lowerneck -3.18561 -5.15131 -16.2159
upperneck -3.33632 -6.34788 6.12344
head 0.21221 -3.0407 4.31774
rclavicle 3.49861e-014 -3.57812e-015
rhumerus 344.282 30.3391 336.75
rradius 112.059
rwrist -23.6581
rhand -9.4938 0.767292
rfingers 7.12502
rthumb 16.4711 -388.554
lclavicle 3.49861e-014 -3.57812e-015
lhumerus 79.3326 21.4169 23.2821
lradius 27.1905
lwrist -7.66912
lhand -10.5154 -698.039
lfingers 7.12502
lthumb 15.4873 51.3604
rfemur -19.8054 10.4098 20.5524
rtibia 38.8524
rfoot 0.971318 -11.1903
rtoes 3.4796
lfemur -14.2057 4.0143 -25.3522
ltibia 36.7963
lfoot 9.16876 3.58079
ltoes 3.68521
3513
root 5.78973 11.7746 21.1487 87.5757 -6.07402 -4.5652
lowerback 1.96772 -2.98186 -12.5454
upperback -4.92368 -4.63916 1.15111
thorax -5.28969 -1.74577 8.52872
lowerneck -3.34624 -4.8783 -16.2749
upperneck -3.35274 -5.95652 5.83174
head 0.180718 -2.8395 4.24724
rclavicle 4.77083e-014 -6.75868e-015
rhumerus 342.52 30.0861 335.874
rradius 113.273
rwrist -23.697
rhand -9.57321 0.787036
rfingers 7.12502
rthumb 16.3946 -388.54
lclavicle 4.77083e-014 -6.75868e-015
lhumerus 78.4597 21.5323 22.7614
lradius 26.9112
lwrist -7.92885
lhand -10.6321 -697.87
lfingers 7.12502
lthumb 15.3748 51.5379
rfemur -19.8294 9.96714 20.5629
rtibia 38.9589
rfoot 1.8185 -9.99897
rtoes 3.14049
lfemur -14.3449 4.38421 -25.4397
ltibia 36.7259
lfoot 10.0329 3.75856
ltoes 4.07845
3514
root 5.8028 11.7795 21.1644 87.6457 -6.174 -4.59127
lowerback 1.89739 -3.34429 -12.5876
upperback -4.9416 -5.11617 1.32448
thorax -5.1378 -1.99127 8.74566
lowerneck -3.50697 -4.61035 -16.3808
upperneck -3.38037 -5.56999 5.56995
head 0.149468 -2.64016 4.19271
rclavicle 1.90833e-014 1.39149e-014
rhumerus 340.816 29.826 335.059
rradius 114.466
rwrist -23.7971
rhand -9.67455 0.776938
rfingers 7.12502
rthumb 16.297 -388.558
lclavicle 1.90833e-014 1.39149e-014
lhumerus 77.4872 21.6849 22.1952
lradius 26.7022
lwrist -8.11776
lhand -10.746 -697.701
lfingers 7.12502
lthumb 15.2651 51.7156
rfemur -19.5809 9.45815 20.6007
rtibia 39.111
rfoot 2.52174 -8.93602
rtoes 2.91147
lfemur -14.3449 4.4999 -25.5309
ltibia 36.6452
lfoot 10.7873 3.99838
ltoes 4.32504
3515
root 5.81682 11.7848 21.1771 87.6366 -6.27837 -4.55361
lowerback 1.9187 -3.71888 -12.6092
upperback -4.9416 -5.62049 1.49067
thorax -5.01098 -2.25082 8.94688
lowerneck -3.69046 -4.34382 -16.5489
upperneck -3.38806 -5.17775 5.37754
head 0.131462 -2.43814 4.16808
rclavicle 4.77083e-014 1.27222e-014
rhumerus 339.162 29.5602 334.292
rradius 115.635
rwrist -23.9143
rhand -9.81015 0.766069
rfingers 7.12502
rthumb 16.1665 -388.58
lclavicle 4.77083e-014 1.27222e-014
lhumerus 76.3979 21.8719 21.5278
lradius 26.5696
lwrist -8.1644
lhand -10.9023 -697.534
lfingers 7.12502
lthumb 15.1146 51.8941
rfemur -19.2134 8.92615 20.6371
rtibia 39.3007
rfoot 3.10541 -8.03112
rtoes 2.83763
lfemur -14.3409 4.43791 -25.6269
ltibia 36.543
lfoot 11.3805 4.28354
ltoes 4.31712
3516
root 5.83181 11.7904 21.1869 87.5583 -6.38977 -4.46599
lowerback 2.01807 -4.10556 -12.6107
upperback -4.92605 -6.15018 1.64567
thorax -4.90522 -2.52353 9.12839
lowerneck -3.91285 -4.07293 -16.7952
upperneck -3.35846 -4.76721 5.29225
head 0.133814 -2.22751 4.18749
rclavicle -2.22639e-014 3.02153e-014
rhumerus 337.561 29.2938 333.569
rradius 116.776
rwrist -24.0114
rhand -9.97802 0.776861
rfingers 7.12502
rthumb 16.0048 -388.582
lclavicle -2.22639e-014 3.02153e-014
lhumerus 75.1794 22.0862 20.7247
lradius 26.5089
lwrist -8.04687
lhand -11.136 -697.36
lfingers 7.12502
lthumb 14.8895 52.0851
rfemur -18.7353 8.37142 20.6636
rtibia 39.5134
rfoot 3.57444 -7.3089
rtoes 6.05669
lfemur -14.3328 4.20314 -25.7299
ltibia 36.4085
lfoot 11.7773 4.62327
ltoes 4.14164
3517
root 5.84584 11.7954 21.1974 87.5448 -6.50091 -4.41284
lowerback 2.05102 -4.49656 -12.5924
upperback -4.92672 -6.6769 1.79896
thorax -4.77886 -2.79719 9.28876
lowerneck -4.19571 -3.79795 -17.1114
upperneck -3.2705 -4.33377 5.32454
head 0.164746 -2.00661 4.25288
rclavicle 6.36111e-014 -2.46493e-014
rhumerus 336.004 29.0246 332.882
rradius 117.883
rwrist -24.0819
rhand -10.1784 0.829497
rfingers 7.12502
rthumb 15.8119 -388.545
lclavicle 6.36111e-014 -2.46493e-014
lhumerus 73.8428 22.3174 19.7783
lradius 26.5043
lwrist -7.78983
lhand -11.4544 -697.186
lfingers 7.12502
lthumb 14.5827 52.2817
rfemur -18.2813 7.87178 20.6782
rtibia 39.7224
rfoot 3.9666 -6.78576
rtoes 8.51912
lfemur -14.4414 3.86801 -25.8263
ltibia 36.2263
lfoot 11.9632 5.0191
ltoes 3.97407
3518
root 5.85853 11.7999 21.2094 87.6236 -6.61804 -4.41854
lowerback 1.99313 -4.88812 -12.5574
upperback -4.95356 -7.19362 1.95025
thorax -4.63106 -3.06799 9.42606
lowerneck -4.53086 -3.51562 -17.4626
upperneck -3.14156 -3.87584 5.435
head 0.214647 -1.77425 4.34789
rclavicle -1.59028e-014 -2.46493e-014
rhumerus 334.487 28.7503 332.21
rradius 118.951
rwrist -24.1473
rhand -10.3553 0.919549
rfingers 7.12502
rthumb 15.6415 -388.468
lclavicle -1.59028e-014 -2.46493e-014
lhumerus 72.3921 22.5497 18.6845
lradius 26.5392
lwrist -7.44422
lhand -11.8555 -697.02
lfingers 7.12502
lthumb 14.1962 52.475
rfemur -17.8777 7.43265 20.6713
rtibia 39.9115
rfoot 4.33616 -6.43607
rtoes 10.9808
lfemur -14.6796 3.45986 -25.9181
ltibia 35.986
lfoot 11.8995 5.49261
ltoes 3.82679
3519
root 5.86941 11.8036 21.2246 87.8209 -6.7359 -4.49993
lowerback 1.8137 -5.27516 -12.5056
upperback -5.00843 -7.68972 2.10571
thorax -4.44899 -3.33165 9.54196
lowerneck -4.93967 -3.23217 -17.8291
upperneck -2.95429 -3.3981 5.58983
head 0.290638 -1.53333 4.45894
rclavicle 4.13472e-014 2.38542e-014
rhumerus 333.004 28.4615 331.559
rradius 119.981
rwrist -24.2166
rhand -10.4917 1.03289
rfingers 7.12502
rthumb 15.5101 -388.365
lclavicle 4.13472e-014 2.38542e-014
lhumerus 70.8505 22.7807 17.4639
lradius 26.5949
lwrist -7.07535
lhand -12.3187 -696.871
lfingers 7.12502
lthumb 13.7499 52.6545
rfemur -17.5506 7.07153 20.6476
rtibia 40.067
rfoot 4.68163 -6.24708
rtoes 12.1409
lfemur -15.0578 3.00597 -25.9923
ltibia 35.6778
lfoot 11.5714 6.04718
ltoes 3.86704
